<svg xmlns="http://www.w3.org/2000/svg" viewBox="0 0 206.15 180.5"><defs><style>.cls-1{fill:#f6b61e;}</style></defs><g id="Capa_2" data-name="Capa 2"><g id="Capa_1-2" data-name="Capa 1"><path class="cls-1" d="M99.76,180.45q-35.24,0-70.49,0C12.7,180.43.32,168.28.17,151.73c-.1-11-.64-22,.94-32.93A175.12,175.12,0,0,1,9.6,84.36c.75-2.08,2.27-4.29,5.07-3.21s2.92,3.24,2,5.91c-5.5,17.06-9.46,34.44-9.07,52.48.14,6.55-1,13.27,1.48,19.66a21.39,21.39,0,0,0,21.94,13.64c2.3-.19,3-1.06,2-3.08-6.68-13.46-6.69-27.7-5-42.15a14.58,14.58,0,0,1,.18-1.48c.54-2.56,1.74-4.69,4.73-4.18s3.82,3,3.12,5.46C34.24,134,34.67,140.6,35,147.16c.46,8.28,2.46,16.29,7.24,23.32,1.44,2.11,8.95,3.37,11,1.85,1.18-.89.94-2.24,1-3.46.06-6.5-.08-13,.17-19.49a88.23,88.23,0,0,1,3.7-23.2,11.92,11.92,0,0,1,.64-1.76c.94-1.84,2.38-3,4.53-2.44s2.68,2.48,2.42,4.46c-.61,4.69-2.31,9.15-2.67,13.92-.75,9.72-1.35,19.43-1.13,29.18,0,2.12.85,3.33,3.11,3.25.25,0,.5,0,.75,0,10.82.43,11.12.23,15.65-9.75,3.93-8.66,5.51-17.83,5.92-27.25.13-3,0-6,0-9,0-2.42.41-4.63,3.38-4.93s4,1.88,4.47,4.13a32.75,32.75,0,0,1,.21,10.82c-1.35,11.55-2.92,23.07-8.84,33.41-1,1.71-.66,2.56,1.4,2.56,3.62,0,7.25,0,10.87,0,2,0,2.29-1.08,1.85-2.71-3.06-11.37.87-21.63,5.15-31.79a39.38,39.38,0,0,1,10-13.85c2-1.78,2.05-3.29.59-5.47-7.89-11.8-9.69-24.41-4.63-37.81a4.52,4.52,0,0,0-.1-3.93C107,67.68,108.33,58.52,114,49.93c2.16-3.25,1.57-5.45-.7-8.3-9.14-11.49-21.33-17-35.57-17C64,24.73,52.53,30.77,43.42,41.27a142.54,142.54,0,0,0-20.3,30.47A26.79,26.79,0,0,1,21.31,75c-1.11,1.62-2.49,3-4.66,1.91a3.77,3.77,0,0,1-1.8-5.13,75.32,75.32,0,0,1,3.29-7.13c.7-1.34.82-2.49-.69-3.1C6,56.88,4.83,43.67,10.72,33.83c7-11.67,16.61-20.35,29.77-24.26,10.06-3,19.58-.65,28.1,5.33A11.35,11.35,0,0,0,76.52,17,44.56,44.56,0,0,1,98,21a19.2,19.2,0,0,0,13.6,1.13C119.17,20.27,127,20,134,24.81c7.47,5.13,9.09,13,10.26,21.18a22.9,22.9,0,0,1,.05,3c.06,5.38.16,5.11,5.37,5.52,8.39.66,16.61,2.28,23.63,7.42,2,1.5,3.89,1.72,6.54,1.18,8.87-1.82,16.89.77,23.57,6.71,3.87,3.44,2.74,8.37,2,12.75a26.6,26.6,0,0,1-12.58,18.67,5.62,5.62,0,0,0-2.61,3.92c-1.64,8.13-5.94,14.8-11.87,20.39-2.12,2-2.3,3.31-.43,5.51a37.31,37.31,0,0,1,5.2,8.65c1,2.3,1.05,4.42-1.41,5.85s-4-.26-5.19-2.08c-1.85-2.82-3.57-5.72-5.27-8.62-1.13-1.94-2.49-2.43-4.66-1.52-13.71,5.74-26.85,4.47-39.25-3.65-2.41-1.59-4.18-1.65-6.21.41-9.81,9.9-13.88,22-13.42,35.7.12,3.51,3.36,6.46,6.85,6.93.62.08,1.25.07,1.87.09,7.21.19,7,.23,5.74-6.69-.94-5.17-.61-10.48-.13-15.7.21-2.34,1.56-4.55,4.33-4.24,3.09.35,4.06,2.74,3.57,5.55a41,41,0,0,0,.94,17.08c.58,2.37,1.78,3.94,4.61,4.05,3.18.12,4.57-.93,4.45-4.27-.18-5.12,0-10.25,0-15.37a13.91,13.91,0,0,1,.23-3.36c.53-2,1.63-3.81,4-3.73,2.24.08,3.23,1.69,3.46,3.76a46.35,46.35,0,0,1,.37,4.85c.06,4.63,0,9.25.06,13.87,0,1.69-.36,3.85,2.17,4.07s5.06.85,6.35-2.39a23,23,0,0,0,2-8.7c0-3.63-.1-7.25-.21-10.87-.07-2.25.6-4.07,3-4.53s3.65,1,4.32,3.19c2.08,6.58,1.39,13.14-.44,19.57-1,3.5.2,4.2,3.29,3.89,1.48-.15,3,0,4.49-.07a7.38,7.38,0,0,0,7.33-7.47c.1-3.74-.16-7.49-.25-11.24,0-1.92.56-3.53,2.64-4s3.74.4,4.17,2.29c1.47,6.57,3.09,13.33-.37,19.7a15.23,15.23,0,0,1-14.37,8.44C148,180.37,123.89,180.45,99.76,180.45Zm83.59-84.54c0-18.83-14.45-33.36-33.12-33.31-18.38,0-33.86,15.13-33.46,33.29.42,18.64,14.19,32.62,32.84,33.15C168.53,129.58,183.36,114.57,183.35,95.91ZM14.87,45.61A9.91,9.91,0,0,0,16.53,51c2.44,4.24,6.58,4.26,9.4.26,2.52-3.56,5-7.18,7.84-10.49,7-8.19,14.49-15.9,24.86-20,.67-.26,1.45-.67,1.48-1.52s-.78-.88-1.34-1.1c-5.1-2.07-10.24-2.8-15.71-1.3-10.6,2.88-18.16,9.67-24.2,18.41A23.69,23.69,0,0,0,14.87,45.61ZM120,28.91c-1.24,0-2.5-.06-3.74,0-.93.07-2.19-.2-2.56,1-.29,1,.68,1.53,1.28,2.12a44.73,44.73,0,0,1,8.09,10.23A5.21,5.21,0,0,0,127,44.91a52,52,0,0,1,6.56,1.5c2.32.76,2.54-.36,2.48-2.18C135.68,34.61,129.69,28.82,120,28.91Zm5.53,23.93c-1.94,0-4-.42-5.32,1.74-2.32,3.92-3.93,8-3.53,12.69.07.84-.1,1.88,1,2.2.83.25,1.36-.49,1.85-1A47.2,47.2,0,0,1,134,58.12c.67-.32,1.47-.54,1.5-1.45,0-1.1-.91-1.36-1.7-1.71C131.16,53.78,128.53,52.66,125.56,52.84Zm66,39.09c5.68-4.36,6.08-9.93,6.24-15.58a2.25,2.25,0,0,0-1-1.91,16.73,16.73,0,0,0-11.09-3.61c-1,.07-2.4.38-1.5,1.72C188.07,78.32,190,84.82,191.6,91.93Z"/><path class="cls-1" d="M163.89,49.29c-4.07,1.13-6.89-1.87-9.36-5.92-4-6.57-7.4-13.39-8.37-21.09S147.08,7.49,154,2.94c7.53-4.94,16.4-3.55,22.23,3.34a8.21,8.21,0,0,0,6.31,3.2c9,.62,16.27,7.07,16.84,15.8.49,7.54-3.65,13.37-10,17.31C182,47.19,173.71,48.84,163.89,49.29Zm2.14-7.8c6.89-.07,16.48-3.11,20.75-6.48s5.7-7.75,4-11.81-5.9-6.52-11.15-5.42c-4.05.85-6-.69-7.63-4-1.54-3.1-4-5.48-7.68-5.86-6.68-.69-12.07,6.13-10.58,13.32a50.87,50.87,0,0,0,6.85,17.26C162.09,40.8,163.71,41.93,166,41.49Z"/><path class="cls-1" d="M60.29,64.66c-.1-2.6.51-5,3.47-5.32,2.77-.31,3.85,1.77,4.25,4.23.16,1,.39,2.07,1.63,2.2.35,0,.88-.44,1.11-.82a1.92,1.92,0,0,0-.47-2.67c-1.43-1.28-2.18-2.82-1.22-4.66,1-2,3-2,4.9-1.87a25.67,25.67,0,0,1,7.59,2c1.66.69,2.75,1.77,2.73,3.62a3.47,3.47,0,0,1-2.84,3.48,5,5,0,0,0-1.4.5,1.59,1.59,0,0,0-.53,2.29,1.45,1.45,0,0,0,2.27.35,6.58,6.58,0,0,0,1.28-1.35C84.44,65,86.14,64.27,88,65.54c2.12,1.46,2,3.66,1,5.72a9.14,9.14,0,0,1-13,4,9,9,0,0,0-5.88-1.52A9.26,9.26,0,0,1,60.29,64.66Z"/><path class="cls-1" d="M97,63.79a9.87,9.87,0,0,1,1.78-5.26,3.09,3.09,0,0,1,2.35-1.68c2.61-.08,3.87,1.5,4.12,3.88.4,3.7-2.08,7.9-4.62,8C98.35,68.88,96.93,67.08,97,63.79Z"/><path class="cls-1" d="M49.71,51.1c0-3.1,2-6.35,4.5-6.28s3.42,1.7,3.48,4c.13,4.55-1.88,7.9-4.68,7.67S49.67,54.3,49.71,51.1Z"/><path class="cls-1" d="M145.63,106.84c-6,0-10.23-4.39-9.55-9.65.27-2.1,1.28-3.54,3.44-3.81a3.28,3.28,0,0,1,3.84,2.78c.72,3.08,1.64,3,3.74.85,2.33-2.4,5.32-1.48,6.18,1.87.67,2.62,1.42,3,3.27,1a3.66,3.66,0,0,1,5.36-.51c1.75,1.38,1.42,3.34.65,5.14-1.77,4.1-7.19,6-11.29,4.19C149.41,107.82,147.83,105.94,145.63,106.84Z"/><path class="cls-1" d="M168.76,98.56c.13-4.3,2.35-7.59,4.82-7.42,2.77.19,3.81,2,3.71,4.56-.14,3.51-2.43,6.7-4.81,6.56A3.67,3.67,0,0,1,168.76,98.56Z"/><path class="cls-1" d="M134.6,84.25c.06,3.59-2.13,7.38-4.42,7.31-2.53-.08-3.7-1.77-3.83-4.16-.19-3.66,2-7.08,4.49-7.18C133.16,80.12,134.55,81.61,134.6,84.25Z"/></g></g></svg>